<svg width="136" height="34" viewBox="0 0 136 34" fill="none" xmlns="http://www.w3.org/2000/svg">
<rect width="34" height="34" rx="10" fill="#5471D2"/>
<path d="M13.6 11.28L16.56 10.88L15.14 17.56C15.78 17.5067 16.3667 17.2267 16.9 16.72C17.4467 16.2133 17.8733 15.5867 18.18 14.84C18.4867 14.0933 18.64 13.36 18.64 12.64C18.64 11.84 18.4333 11.1867 18.02 10.68C17.6067 10.1733 16.9867 9.92 16.16 9.92C14.5333 9.92 13.26 10.3467 12.34 11.2C11.4333 12.0533 10.98 13.2467 10.98 14.78C10.98 15.2733 11.0267 15.62 11.12 15.82C11.2133 16.0067 11.26 16.1133 11.26 16.14C10.54 16.14 10 15.9933 9.64 15.7C9.29333 15.3933 9.12 14.8933 9.12 14.2C9.12 13.3467 9.46667 12.52 10.16 11.72C10.8667 10.9067 11.7667 10.2533 12.86 9.76C13.9533 9.25333 15.0467 9 16.14 9C17.1933 9 18.0733 9.18 18.78 9.54C19.4867 9.9 20.0067 10.38 20.34 10.98C20.6867 11.5667 20.86 12.22 20.86 12.94C20.86 13.8067 20.62 14.6533 20.14 15.48C19.6733 16.3067 19 16.9867 18.12 17.52C17.24 18.04 16.2267 18.3 15.08 18.3H14.98L13.76 24H10.88L13.6 11.28ZM22.6648 24.08C22.2248 24.08 21.8515 23.9267 21.5448 23.62C21.2382 23.3133 21.0848 22.94 21.0848 22.5C21.0848 22.06 21.2382 21.6867 21.5448 21.38C21.8515 21.06 22.2248 20.9 22.6648 20.9C23.1048 20.9 23.4782 21.06 23.7848 21.38C24.1048 21.6867 24.2648 22.06 24.2648 22.5C24.2648 22.94 24.1048 23.3133 23.7848 23.62C23.4782 23.9267 23.1048 24.08 22.6648 24.08Z" fill="white"/>
<path d="M52.6 12.28L55.56 11.88L54.14 18.56C54.78 18.5067 55.3667 18.2267 55.9 17.72C56.4467 17.2133 56.8733 16.5867 57.18 15.84C57.4867 15.0933 57.64 14.36 57.64 13.64C57.64 12.84 57.4333 12.1867 57.02 11.68C56.6067 11.1733 55.9867 10.92 55.16 10.92C53.5333 10.92 52.26 11.3467 51.34 12.2C50.4333 13.0533 49.98 14.2467 49.98 15.78C49.98 16.2733 50.0267 16.62 50.12 16.82C50.2133 17.0067 50.26 17.1133 50.26 17.14C49.54 17.14 49 16.9933 48.64 16.7C48.2933 16.3933 48.12 15.8933 48.12 15.2C48.12 14.3467 48.4667 13.52 49.16 12.72C49.8667 11.9067 50.7667 11.2533 51.86 10.76C52.9533 10.2533 54.0467 10 55.14 10C56.1933 10 57.0733 10.18 57.78 10.54C58.4867 10.9 59.0067 11.38 59.34 11.98C59.6867 12.5667 59.86 13.22 59.86 13.94C59.86 14.8067 59.62 15.6533 59.14 16.48C58.6733 17.3067 58 17.9867 57.12 18.52C56.24 19.04 55.2267 19.3 54.08 19.3H53.98L52.76 25H49.88L52.6 12.28ZM61.8648 25.12C61.1048 25.12 60.4715 24.86 59.9648 24.34C59.4582 23.82 59.2048 23.0067 59.2048 21.9C59.2048 20.9133 59.3982 19.88 59.7848 18.8C60.1848 17.7067 60.7715 16.7867 61.5448 16.04C62.3315 15.28 63.2648 14.9 64.3448 14.9C64.8915 14.9 65.2982 14.9933 65.5648 15.18C65.8315 15.3667 65.9648 15.6133 65.9648 15.92V16.06L66.1848 15H69.0648L67.6248 21.8C67.5715 22 67.5448 22.2133 67.5448 22.44C67.5448 23.0133 67.8182 23.3 68.3648 23.3C68.7382 23.3 69.0582 23.1267 69.3248 22.78C69.6048 22.4333 69.8248 21.98 69.9848 21.42H70.8248C70.3315 22.86 69.7182 23.84 68.9848 24.36C68.2648 24.8667 67.5382 25.12 66.8048 25.12C66.2448 25.12 65.7915 24.9667 65.4448 24.66C65.1115 24.34 64.9115 23.88 64.8448 23.28C64.4582 23.8267 64.0248 24.2733 63.5448 24.62C63.0782 24.9533 62.5182 25.12 61.8648 25.12ZM63.1648 23.18C63.4982 23.18 63.8248 23.0267 64.1448 22.72C64.4782 22.4 64.7048 21.9667 64.8248 21.42L65.7848 16.9C65.7848 16.7267 65.7182 16.56 65.5848 16.4C65.4515 16.2267 65.2448 16.14 64.9648 16.14C64.4315 16.14 63.9515 16.4533 63.5248 17.08C63.0982 17.6933 62.7648 18.44 62.5248 19.32C62.2848 20.1867 62.1648 20.9533 62.1648 21.62C62.1648 22.2867 62.2582 22.7133 62.4448 22.9C62.6448 23.0867 62.8848 23.18 63.1648 23.18ZM71.3522 15H74.2322L73.9722 16.24C74.4255 15.84 74.8322 15.5333 75.1922 15.32C75.5655 15.1067 75.9655 15 76.3922 15C76.8189 15 77.1522 15.1467 77.3922 15.44C77.6455 15.7333 77.7722 16.0867 77.7722 16.5C77.7722 16.8867 77.6455 17.2267 77.3922 17.52C77.1389 17.8133 76.7855 17.96 76.3322 17.96C76.0389 17.96 75.8389 17.8933 75.7322 17.76C75.6389 17.6133 75.5655 17.4067 75.5122 17.14C75.4722 16.9667 75.4322 16.84 75.3922 16.76C75.3522 16.68 75.2789 16.64 75.1722 16.64C74.8922 16.64 74.6522 16.7 74.4522 16.82C74.2655 16.9267 74.0189 17.12 73.7122 17.4L72.1122 25H69.2322L71.3522 15ZM85.0317 25.12C84.2051 25.12 83.5784 24.9267 83.1517 24.54C82.7251 24.14 82.5117 23.5733 82.5117 22.84C82.5117 22.52 82.5517 22.1733 82.6317 21.8L82.7917 21.02C82.8451 20.7933 82.8717 20.5467 82.8717 20.28C82.8717 19.64 82.6317 19.32 82.1517 19.32C81.9384 19.32 81.7117 19.38 81.4717 19.5C81.2451 19.62 80.9784 19.8067 80.6717 20.06L79.6317 25H76.7517L79.6517 11.4L82.6117 11L81.1117 18.04L84.9717 15H86.9517L82.9517 17.78C83.1517 17.7267 83.3717 17.7 83.6117 17.7C84.3317 17.7 84.8784 17.92 85.2517 18.36C85.6251 18.8 85.8117 19.36 85.8117 20.04C85.8117 20.32 85.7851 20.5733 85.7317 20.8L85.5117 21.8C85.4451 22.04 85.4117 22.2533 85.4117 22.44C85.4117 22.9333 85.6717 23.18 86.1917 23.18C86.5917 23.18 86.9117 23.04 87.1517 22.76C87.3917 22.4667 87.6317 22.02 87.8717 21.42H88.7117C87.8851 23.8867 86.6584 25.12 85.0317 25.12ZM91.2033 13.92C90.7633 13.92 90.3899 13.7667 90.0833 13.46C89.7766 13.1533 89.6233 12.78 89.6233 12.34C89.6233 11.9 89.7766 11.5267 90.0833 11.22C90.3899 10.9 90.7633 10.74 91.2033 10.74C91.6433 10.74 92.0166 10.9 92.3233 11.22C92.6433 11.5267 92.8033 11.9 92.8033 12.34C92.8033 12.78 92.6433 13.1533 92.3233 13.46C92.0166 13.7667 91.6433 13.92 91.2033 13.92ZM89.8433 25.12C89.2033 25.12 88.6833 24.92 88.2833 24.52C87.8966 24.12 87.7033 23.52 87.7033 22.72C87.7033 22.3867 87.7566 21.9533 87.8633 21.42L89.2233 15H92.1033L90.6633 21.8C90.6099 22 90.5833 22.2133 90.5833 22.44C90.5833 22.7067 90.6433 22.9 90.7633 23.02C90.8966 23.1267 91.1099 23.18 91.4033 23.18C91.7899 23.18 92.1499 23.02 92.4833 22.7C92.8166 22.3667 93.0566 21.94 93.2033 21.42H94.0433C93.5499 22.86 92.9166 23.84 92.1433 24.36C91.3699 24.8667 90.6033 25.12 89.8433 25.12ZM100.415 25.12C99.602 25.12 99.002 24.9067 98.6153 24.48C98.242 24.04 98.0553 23.5 98.0553 22.86C98.0553 22.58 98.0886 22.2667 98.1553 21.92C98.222 21.56 98.2886 21.2133 98.3553 20.88C98.4353 20.5467 98.4886 20.3333 98.5153 20.24C98.622 19.7733 98.722 19.3133 98.8153 18.86C98.9086 18.4067 98.9553 18.04 98.9553 17.76C98.9553 17.08 98.7153 16.74 98.2353 16.74C97.8886 16.74 97.582 16.9133 97.3153 17.26C97.0486 17.5933 96.8353 18.0333 96.6753 18.58L95.3153 25H92.4353L94.5553 15H97.4353L97.2153 16.04C97.882 15.2933 98.662 14.92 99.5553 14.92C100.235 14.92 100.775 15.1067 101.175 15.48C101.575 15.8533 101.775 16.42 101.775 17.18C101.775 17.5667 101.729 18 101.635 18.48C101.542 18.9467 101.409 19.52 101.235 20.2C101.129 20.6133 101.029 21.02 100.935 21.42C100.855 21.8067 100.815 22.1133 100.815 22.34C100.815 22.6067 100.875 22.8133 100.995 22.96C101.115 23.1067 101.322 23.18 101.615 23.18C102.015 23.18 102.335 23.04 102.575 22.76C102.815 22.4667 103.055 22.02 103.295 21.42H104.135C103.642 22.8867 103.069 23.8733 102.415 24.38C101.775 24.8733 101.109 25.12 100.415 25.12ZM106.813 30C106.186 30 105.633 29.7933 105.153 29.38C104.686 28.98 104.453 28.4667 104.453 27.84C104.453 27.2533 104.6 26.7733 104.893 26.4C105.186 26.0267 105.566 25.7333 106.033 25.52C106.5 25.3067 107.126 25.08 107.913 24.84L108.093 24C107.4 24.7467 106.6 25.12 105.693 25.12C104.933 25.12 104.3 24.86 103.793 24.34C103.286 23.82 103.033 23.0067 103.033 21.9C103.033 20.9133 103.226 19.88 103.613 18.8C104.013 17.7067 104.6 16.7867 105.373 16.04C106.16 15.28 107.093 14.9 108.173 14.9C108.72 14.9 109.126 14.9933 109.393 15.18C109.66 15.3667 109.793 15.6133 109.793 15.92V15.96L109.993 15H112.893L110.453 26.6C110.186 27.88 109.713 28.7667 109.033 29.26C108.366 29.7533 107.626 30 106.813 30ZM106.993 23.18C107.3 23.18 107.606 23.0533 107.913 22.8C108.233 22.5333 108.46 22.16 108.593 21.68L109.613 16.84C109.506 16.3733 109.233 16.14 108.793 16.14C108.26 16.14 107.78 16.4533 107.353 17.08C106.926 17.6933 106.593 18.44 106.353 19.32C106.113 20.1867 105.993 20.9533 105.993 21.62C105.993 22.2867 106.086 22.7133 106.273 22.9C106.473 23.0867 106.713 23.18 106.993 23.18ZM106.353 28.22C106.593 28.22 106.82 28.0933 107.033 27.84C107.246 27.6 107.413 27.2067 107.533 26.66L107.773 25.48C107.066 25.72 106.52 26 106.133 26.32C105.746 26.64 105.553 27.0533 105.553 27.56C105.553 27.72 105.633 27.8667 105.793 28C105.953 28.1467 106.14 28.22 106.353 28.22ZM121.622 25.34C120.582 25.34 120.062 24.8933 120.062 24C120.062 23.7067 120.102 23.3733 120.182 23C120.276 22.6133 120.402 22.12 120.562 21.52C120.749 20.8933 120.889 20.36 120.982 19.92C121.076 19.48 121.122 19.0867 121.122 18.74C121.122 17.8333 120.722 17.38 119.922 17.38C119.696 17.38 119.476 17.4067 119.262 17.46L117.662 25H114.782L117.682 11.4C116.789 11.7733 116.096 12.3333 115.602 13.08C115.122 13.8267 114.882 14.7267 114.882 15.78C114.882 16.2733 114.929 16.62 115.022 16.82C115.116 17.0067 115.162 17.1133 115.162 17.14C114.442 17.14 113.902 16.9933 113.542 16.7C113.196 16.3933 113.022 15.8933 113.022 15.2C113.022 14.3467 113.369 13.52 114.062 12.72C114.769 11.9067 115.669 11.2533 116.762 10.76C117.856 10.2533 118.949 10 120.042 10C120.229 10 120.496 10.0133 120.842 10.04L119.542 16.16L121.602 13.4C123.242 11.1867 124.069 10.0867 124.082 10.1H126.182L120.622 16.5L121.322 16.48C122.229 16.48 122.869 16.6733 123.242 17.06C123.616 17.4333 123.802 17.9533 123.802 18.62C123.802 19.0067 123.756 19.42 123.662 19.86C123.569 20.2867 123.436 20.82 123.262 21.46C123.156 21.8733 123.056 22.28 122.962 22.68C122.869 23.08 122.822 23.4133 122.822 23.68C122.822 23.9867 122.889 24.26 123.022 24.5C123.169 24.74 123.362 24.9067 123.602 25C122.789 25.2267 122.129 25.34 121.622 25.34ZM128.254 13.92C127.814 13.92 127.441 13.7667 127.134 13.46C126.827 13.1533 126.674 12.78 126.674 12.34C126.674 11.9 126.827 11.5267 127.134 11.22C127.441 10.9 127.814 10.74 128.254 10.74C128.694 10.74 129.067 10.9 129.374 11.22C129.694 11.5267 129.854 11.9 129.854 12.34C129.854 12.78 129.694 13.1533 129.374 13.46C129.067 13.7667 128.694 13.92 128.254 13.92ZM126.894 25.12C126.254 25.12 125.734 24.92 125.334 24.52C124.947 24.12 124.754 23.52 124.754 22.72C124.754 22.3867 124.807 21.9533 124.914 21.42L126.274 15H129.154L127.714 21.8C127.661 22 127.634 22.2133 127.634 22.44C127.634 22.7067 127.694 22.9 127.814 23.02C127.947 23.1267 128.161 23.18 128.454 23.18C128.841 23.18 129.201 23.02 129.534 22.7C129.867 22.3667 130.107 21.94 130.254 21.42H131.094C130.601 22.86 129.967 23.84 129.194 24.36C128.421 24.8667 127.654 25.12 126.894 25.12ZM132.126 25.12C131.446 25.12 130.939 24.9133 130.606 24.5C130.286 24.0867 130.126 23.54 130.126 22.86C130.126 22.5133 130.166 22.16 130.246 21.8L131.526 15.8H130.866L131.026 15H131.686L132.286 12.24L135.246 11.84C135.126 12.3467 135.059 12.6467 135.046 12.74C134.953 13.1133 134.793 13.8667 134.566 15H135.766L135.606 15.8H134.406L133.126 21.8C133.059 22.0933 133.026 22.3267 133.026 22.5C133.026 22.98 133.259 23.22 133.726 23.22C133.966 23.22 134.139 23.2 134.246 23.16C133.979 23.9333 133.666 24.4533 133.306 24.72C132.946 24.9867 132.553 25.12 132.126 25.12Z" fill="#0D47A1" fill-opacity="0.75"/>
</svg>
